<?xml version="1.0" encoding="UTF-8" standalone="no"?>
<!-- Created with Inkscape (http://www.inkscape.org/) -->

<svg
   xmlns:dc="http://purl.org/dc/elements/1.1/"
   xmlns:cc="http://creativecommons.org/ns#"
   xmlns:rdf="http://www.w3.org/1999/02/22-rdf-syntax-ns#"
   xmlns:svg="http://www.w3.org/2000/svg"
   xmlns="http://www.w3.org/2000/svg"
   xmlns:sodipodi="http://sodipodi.sourceforge.net/DTD/sodipodi-0.dtd"
   xmlns:inkscape="http://www.inkscape.org/namespaces/inkscape"
   width="700"
   height="700"
   id="svg2"
   version="1.1"
   inkscape:version="0.48.2 r9819"
   sodipodi:docname="elementreferenzen.svg"
   inkscape:export-filename="D:\informatikprojekt\phase_2\BPMNSimulator\dokumentation\elementreferenzen.png"
   inkscape:export-xdpi="90"
   inkscape:export-ydpi="90">
  <defs
     id="defs4">
    <marker
       inkscape:stockid="TriangleOutS"
       orient="auto"
       refY="0"
       refX="0"
       id="TriangleOutS"
       style="overflow:visible">
      <path
         id="path3958"
         d="m 5.77,0 -8.65,5 0,-10 8.65,5 z"
         style="fill-rule:evenodd;stroke:#000000;stroke-width:1pt;marker-start:none"
         transform="scale(0.2,0.2)"
         inkscape:connector-curvature="0" />
    </marker>
  </defs>
  <sodipodi:namedview
     id="base"
     pagecolor="#ffffff"
     bordercolor="#666666"
     borderopacity="1.0"
     inkscape:pageopacity="0.0"
     inkscape:pageshadow="2"
     inkscape:zoom="1"
     inkscape:cx="343.06928"
     inkscape:cy="383.65136"
     inkscape:document-units="px"
     inkscape:current-layer="layer1"
     showgrid="false"
     inkscape:window-width="1280"
     inkscape:window-height="975"
     inkscape:window-x="-4"
     inkscape:window-y="-4"
     inkscape:window-maximized="1" />
  <metadata
     id="metadata7">
    <rdf:RDF>
      <cc:Work
         rdf:about="">
        <dc:format>image/svg+xml</dc:format>
        <dc:type
           rdf:resource="http://purl.org/dc/dcmitype/StillImage" />
        <dc:title></dc:title>
      </cc:Work>
    </rdf:RDF>
  </metadata>
  <g
     inkscape:label="Ebene 1"
     inkscape:groupmode="layer"
     id="layer1"
     transform="translate(0,-352.36218)">
    <path
       sodipodi:type="arc"
       style="fill:#404040;fill-opacity:1;stroke:none"
       id="path3753"
       sodipodi:cx="92.85714"
       sodipodi:cy="969.50507"
       sodipodi:rx="35.714287"
       sodipodi:ry="34.285713"
       d="m 128.57143,969.50507 c 0,18.93547 -15.98983,34.28573 -35.71429,34.28573 -19.724456,0 -35.714287,-15.35026 -35.714287,-34.28573 0,-18.93548 15.989831,-34.28572 35.714287,-34.28572 19.72446,0 35.71429,15.35024 35.71429,34.28572 z"
       transform="matrix(1.3066485,0,0,1.3610923,25.334377,-363.89751)" />
    <path
       sodipodi:type="arc"
       style="fill:none;stroke:#000000;stroke-width:5;stroke-miterlimit:4;stroke-opacity:1;stroke-dasharray:none"
       id="path3753-1"
       sodipodi:cx="92.85714"
       sodipodi:cy="969.50507"
       sodipodi:rx="35.714287"
       sodipodi:ry="34.285713"
       d="m 123.78662,986.64792 c -9.86223,16.39858 -31.704744,22.01718 -48.786624,12.54944 -17.08188,-9.46773 -22.934564,-30.43655 -13.072336,-46.83515 9.862228,-16.3986 31.704743,-22.01718 48.78662,-12.54944 5.42926,3.0092 9.93776,7.33735 13.07234,12.54944"
       transform="matrix(1.3066485,0,0,1.3610923,228.66836,-367.23149)"
       sodipodi:start="0.52359878"
       sodipodi:end="5.7595865"
       sodipodi:open="true" />
    <path
       sodipodi:type="arc"
       style="fill:#808080;fill-opacity:1;stroke:none"
       id="path3753-1-7"
       sodipodi:cx="92.85714"
       sodipodi:cy="969.50507"
       sodipodi:rx="35.714287"
       sodipodi:ry="34.285713"
       d="m 128.57143,969.50507 c 0,18.93547 -15.98983,34.28573 -35.71429,34.28573 -19.724456,0 -35.714287,-15.35026 -35.714287,-34.28573 0,-18.93548 15.989831,-34.28572 35.714287,-34.28572 19.72446,0 35.71429,15.35024 35.71429,34.28572 z"
       transform="matrix(1.3066485,0,0,1.3610923,425.33438,-363.89751)" />
    <path
       style="fill:none;stroke:#404040;stroke-width:10;stroke-linecap:butt;stroke-linejoin:miter;stroke-miterlimit:4;stroke-opacity:1;stroke-dasharray:none;marker-end:url(#TriangleOutS)"
       d="m 152,953.17092 135.84983,0.43347 0,0"
       id="path3804"
       inkscape:connector-curvature="0" />
    <path
       sodipodi:type="arc"
       style="fill:#000000;fill-opacity:1;stroke:none"
       id="path5762"
       sodipodi:cx="327.5"
       sodipodi:cy="878.36218"
       sodipodi:rx="33.5"
       sodipodi:ry="30"
       d="m 361,878.36218 c 0,16.56855 -14.99846,30 -33.5,30 -18.50154,0 -33.5,-13.43145 -33.5,-30 0,-16.56854 14.99846,-30 33.5,-30 18.50154,0 33.5,13.43146 33.5,30 z"
       transform="matrix(0.89552239,0,0,1,56.716417,73.992209)" />
    <path
       style="fill:none;stroke:#000000;stroke-width:10;stroke-linecap:butt;stroke-linejoin:miter;stroke-miterlimit:4;stroke-opacity:1;stroke-dasharray:none;marker-end:url(#TriangleOutS)"
       d="m 355,953.17092 135.84983,0.43347 0,0"
       id="path3804-9"
       inkscape:connector-curvature="0" />
    <path
       sodipodi:type="arc"
       style="fill:#404040;fill-opacity:1;stroke:none"
       id="path3753-2"
       sodipodi:cx="92.85714"
       sodipodi:cy="969.50507"
       sodipodi:rx="35.714287"
       sodipodi:ry="34.285713"
       d="m 128.57143,969.50507 c 0,18.93547 -15.98983,34.28573 -35.71429,34.28573 -19.724456,0 -35.714287,-15.35026 -35.714287,-34.28573 0,-18.93548 15.989831,-34.28572 35.714287,-34.28572 19.72446,0 35.71429,15.35024 35.71429,34.28572 z"
       transform="matrix(1.3066485,0,0,1.3610923,25.334377,-513.90528)" />
    <path
       sodipodi:type="arc"
       style="fill:none;stroke:#000000;stroke-width:5;stroke-miterlimit:4;stroke-opacity:1;stroke-dasharray:none"
       id="path3753-1-4"
       sodipodi:cx="92.85714"
       sodipodi:cy="969.50507"
       sodipodi:rx="35.714287"
       sodipodi:ry="34.285713"
       d="m 123.78662,986.64792 c -9.86223,16.39858 -31.704744,22.01718 -48.786624,12.54944 -17.08188,-9.46773 -22.934564,-30.43655 -13.072336,-46.83515 9.862228,-16.3986 31.704743,-22.01718 48.78662,-12.54944 5.42926,3.0092 9.93776,7.33735 13.07234,12.54944"
       transform="matrix(1.3066485,0,0,1.3610923,228.66836,-517.23928)"
       sodipodi:start="0.52359878"
       sodipodi:end="5.7595865"
       sodipodi:open="true" />
    <path
       sodipodi:type="arc"
       style="fill:#808080;fill-opacity:1;stroke:none"
       id="path3753-1-7-5"
       sodipodi:cx="92.85714"
       sodipodi:cy="969.50507"
       sodipodi:rx="35.714287"
       sodipodi:ry="34.285713"
       d="m 128.57143,969.50507 c 0,18.93547 -15.98983,34.28573 -35.71429,34.28573 -19.724456,0 -35.714287,-15.35026 -35.714287,-34.28573 0,-18.93548 15.989831,-34.28572 35.714287,-34.28572 19.72446,0 35.71429,15.35024 35.71429,34.28572 z"
       transform="matrix(1.3066485,0,0,1.3610923,425.33438,-513.90528)" />
    <path
       style="fill:none;stroke:#404040;stroke-width:10;stroke-linecap:butt;stroke-linejoin:miter;stroke-miterlimit:4;stroke-opacity:1;stroke-dasharray:none;marker-end:url(#TriangleOutS)"
       d="m 152,803.16315 135.84983,0.43347 0,0"
       id="path3804-5"
       inkscape:connector-curvature="0" />
    <path
       sodipodi:type="arc"
       style="fill:#404040;fill-opacity:1;stroke:none"
       id="path3753-2-5"
       sodipodi:cx="92.85714"
       sodipodi:cy="969.50507"
       sodipodi:rx="35.714287"
       sodipodi:ry="34.285713"
       d="m 128.57143,969.50507 c 0,18.93547 -15.98983,34.28573 -35.71429,34.28573 -19.724456,0 -35.714287,-15.35026 -35.714287,-34.28573 0,-18.93548 15.989831,-34.28572 35.714287,-34.28572 19.72446,0 35.71429,15.35024 35.71429,34.28572 z"
       transform="matrix(1.3066485,0,0,1.3610923,25.334377,-663.89749)" />
    <path
       sodipodi:type="arc"
       style="fill:none;stroke:#000000;stroke-width:5;stroke-miterlimit:4;stroke-opacity:1;stroke-dasharray:none"
       id="path3753-1-4-2"
       sodipodi:cx="92.85714"
       sodipodi:cy="969.50507"
       sodipodi:rx="35.714287"
       sodipodi:ry="34.285713"
       d="m 123.78662,986.64792 c -9.86223,16.39858 -31.704744,22.01718 -48.786624,12.54944 -17.08188,-9.46773 -22.934564,-30.43655 -13.072336,-46.83515 9.862228,-16.3986 31.704743,-22.01718 48.78662,-12.54944 5.42926,3.0092 9.93776,7.33735 13.07234,12.54944"
       transform="matrix(1.3066485,0,0,1.3610923,228.66836,-667.23149)"
       sodipodi:start="0.52359878"
       sodipodi:end="5.7595865"
       sodipodi:open="true" />
    <path
       style="fill:none;stroke:#404040;stroke-width:10;stroke-linecap:butt;stroke-linejoin:miter;stroke-miterlimit:4;stroke-opacity:1;stroke-dasharray:none;marker-end:url(#TriangleOutS)"
       d="m 152,653.17096 135.84983,0.43347 0,0"
       id="path3804-5-6"
       inkscape:connector-curvature="0" />
    <path
       sodipodi:type="arc"
       style="fill:#404040;fill-opacity:1;stroke:none"
       id="path3753-2-5-2"
       sodipodi:cx="92.85714"
       sodipodi:cy="969.50507"
       sodipodi:rx="35.714287"
       sodipodi:ry="34.285713"
       d="m 128.57143,969.50507 c 0,18.93547 -15.98983,34.28573 -35.71429,34.28573 -19.724456,0 -35.714287,-15.35026 -35.714287,-34.28573 0,-18.93548 15.989831,-34.28572 35.714287,-34.28572 19.72446,0 35.71429,15.35024 35.71429,34.28572 z"
       transform="matrix(1.3066485,0,0,1.3610923,25.334377,-813.89749)" />
    <text
       xml:space="preserve"
       style="font-size:40px;font-style:normal;font-weight:normal;text-align:center;line-height:125%;letter-spacing:0px;word-spacing:0px;text-anchor:middle;fill:#000000;fill-opacity:1;stroke:none;font-family:Sans"
       x="150.41406"
       y="374.60437"
       id="text5912"
       sodipodi:linespacing="125%"><tspan
         sodipodi:role="line"
         id="tspan5914"
         x="150.41406"
         y="374.60437"
         style="font-size:22px">Element</tspan><tspan
         sodipodi:role="line"
         x="150.41406"
         y="402.10437"
         id="tspan5916"
         style="font-size:22px">das verweist</tspan></text>
    <text
       xml:space="preserve"
       style="font-size:22px;font-style:normal;font-weight:normal;text-align:center;line-height:125%;letter-spacing:0px;word-spacing:0px;text-anchor:middle;fill:#000000;fill-opacity:1;stroke:none;font-family:Sans"
       x="541.16016"
       y="374.60437"
       id="text5918"
       sodipodi:linespacing="125%"><tspan
         sodipodi:role="line"
         id="tspan5920"
         x="541.16016"
         y="374.60437">Element</tspan><tspan
         sodipodi:role="line"
         x="541.16016"
         y="402.10437"
         id="tspan5922">auf das verwiesen wird</tspan></text>
    <text
       xml:space="preserve"
       style="font-size:22px;font-style:normal;font-weight:normal;line-height:125%;letter-spacing:0px;word-spacing:0px;fill:#000000;fill-opacity:1;stroke:none;font-family:Sans"
       x="278.25977"
       y="392.10437"
       id="text5924"
       sodipodi:linespacing="125%"><tspan
         sodipodi:role="line"
         id="tspan5926"
         x="278.25977"
         y="392.10437">ElementRef</tspan></text>
  </g>
</svg>
