<?xml version="1.0" encoding="UTF-8" standalone="no"?>
<!-- Created with Inkscape (http://www.inkscape.org/) -->

<svg
   xmlns:dc="http://purl.org/dc/elements/1.1/"
   xmlns:cc="http://creativecommons.org/ns#"
   xmlns:rdf="http://www.w3.org/1999/02/22-rdf-syntax-ns#"
   xmlns:svg="http://www.w3.org/2000/svg"
   xmlns="http://www.w3.org/2000/svg"
   xmlns:xlink="http://www.w3.org/1999/xlink"
   xmlns:sodipodi="http://sodipodi.sourceforge.net/DTD/sodipodi-0.dtd"
   xmlns:inkscape="http://www.inkscape.org/namespaces/inkscape"
   width="550"
   height="300"
   id="svg2"
   version="1.1"
   inkscape:version="0.48.2 r9819"
   sodipodi:docname="marken.svg"
   inkscape:export-filename="D:\informatikprojekt\phase_2\marken.png"
   inkscape:export-xdpi="90"
   inkscape:export-ydpi="90">
  <defs
     id="defs4">
    <linearGradient
       inkscape:collect="always"
       id="linearGradient3831">
      <stop
         style="stop-color:#c4c4c4;stop-opacity:1;"
         offset="0"
         id="stop3833" />
      <stop
         style="stop-color:#c4c4c4;stop-opacity:0;"
         offset="1"
         id="stop3835" />
    </linearGradient>
    <linearGradient
       inkscape:collect="always"
       xlink:href="#linearGradient3831"
       id="linearGradient3837"
       x1="253.99498"
       y1="343.11694"
       x2="47"
       y2="124.36218"
       gradientUnits="userSpaceOnUse"
       gradientTransform="matrix(1.0005588,0,0,0.89191498,2.9178537,792.38631)" />
    <linearGradient
       inkscape:collect="always"
       id="linearGradient3831-8">
      <stop
         style="stop-color:#c4c4c4;stop-opacity:1;"
         offset="0"
         id="stop3833-8" />
      <stop
         style="stop-color:#c4c4c4;stop-opacity:0;"
         offset="1"
         id="stop3835-2" />
    </linearGradient>
    <linearGradient
       y2="124.36218"
       x2="47"
       y1="343.11694"
       x1="253.99498"
       gradientTransform="matrix(1.0005588,0,0,0.89191498,252.91786,792.3863)"
       gradientUnits="userSpaceOnUse"
       id="linearGradient3873"
       xlink:href="#linearGradient3831-8"
       inkscape:collect="always" />
  </defs>
  <sodipodi:namedview
     id="base"
     pagecolor="#ffffff"
     bordercolor="#666666"
     borderopacity="1.0"
     inkscape:pageopacity="0.0"
     inkscape:pageshadow="2"
     inkscape:zoom="1"
     inkscape:cx="292.28607"
     inkscape:cy="356.97188"
     inkscape:document-units="px"
     inkscape:current-layer="layer1"
     showgrid="false"
     inkscape:snap-global="true"
     inkscape:window-width="1280"
     inkscape:window-height="975"
     inkscape:window-x="-4"
     inkscape:window-y="-4"
     inkscape:window-maximized="1">
    <inkscape:grid
       type="xygrid"
       id="grid2985"
       empspacing="5"
       visible="true"
       enabled="true"
       snapvisiblegridlinesonly="true" />
  </sodipodi:namedview>
  <metadata
     id="metadata7">
    <rdf:RDF>
      <cc:Work
         rdf:about="">
        <dc:format>image/svg+xml</dc:format>
        <dc:type
           rdf:resource="http://purl.org/dc/dcmitype/StillImage" />
        <dc:title></dc:title>
      </cc:Work>
    </rdf:RDF>
  </metadata>
  <g
     inkscape:label="Ebene 1"
     inkscape:groupmode="layer"
     id="layer1"
     transform="translate(0,-752.36218)">
    <path
       style="fill:none;stroke:#000000;stroke-width:2.08299994;stroke-linecap:butt;stroke-linejoin:miter;stroke-miterlimit:4;stroke-opacity:1;stroke-dasharray:none"
       d="m 51.0415,801.32062 197.8287,0"
       id="path2987"
       inkscape:connector-curvature="0" />
    <path
       sodipodi:type="star"
       style="fill:#ff0000;fill-opacity:1;stroke:none"
       id="path2989"
       sodipodi:sides="5"
       sodipodi:cx="69"
       sodipodi:cy="140.36218"
       sodipodi:r1="15"
       sodipodi:r2="7.5"
       sodipodi:arg1="0.92729522"
       sodipodi:arg2="1.5556138"
       inkscape:flatsided="false"
       inkscape:rounded="0.2"
       inkscape:randomized="0"
       d="m 78,152.36218 c -1.593757,1.19532 -6.894168,-4.53111 -8.886135,-4.50086 -1.991967,0.0302 -7.116077,5.91495 -8.74539,4.76858 -1.629313,-1.14638 2.178926,-7.95694 1.534609,-9.84207 -0.644317,-1.88512 -7.824446,-4.93996 -7.23766,-6.84378 0.586787,-1.90382 8.240819,-0.38655 9.834576,-1.58187 1.593757,-1.19532 2.280303,-8.96802 4.27227,-8.99827 1.991967,-0.0302 2.91418,7.71804 4.543493,8.86442 1.629313,1.14638 9.233751,-0.60258 9.878068,1.28255 0.644317,1.88512 -6.439757,5.15655 -7.026543,7.06037 -0.586787,1.90382 3.426469,8.59561 1.832712,9.79093 z"
       inkscape:transform-center-x="0.098669621"
       inkscape:transform-center-y="-2.0029065"
       transform="matrix(1.4021112,0,0,1.4670294,73.400757,596.23233)" />
    <path
       style="fill:none;stroke:#000000;stroke-width:2.08299994;stroke-linecap:butt;stroke-linejoin:miter;stroke-miterlimit:4;stroke-opacity:1;stroke-dasharray:none"
       d="m 301.0415,801.32062 197.8287,0"
       id="path2987-1"
       inkscape:connector-curvature="0" />
    <path
       sodipodi:type="star"
       style="fill:#ff0000;fill-opacity:1;stroke:none"
       id="path2989-7"
       sodipodi:sides="5"
       sodipodi:cx="69"
       sodipodi:cy="140.36218"
       sodipodi:r1="15"
       sodipodi:r2="7.5"
       sodipodi:arg1="0.92729522"
       sodipodi:arg2="1.5556138"
       inkscape:flatsided="false"
       inkscape:rounded="0.2"
       inkscape:randomized="0"
       d="m 78,152.36218 c -1.593757,1.19532 -6.894168,-4.53111 -8.886135,-4.50086 -1.991967,0.0302 -7.116077,5.91495 -8.74539,4.76858 -1.629313,-1.14638 2.178926,-7.95694 1.534609,-9.84207 -0.644317,-1.88512 -7.824446,-4.93996 -7.23766,-6.84378 0.586787,-1.90382 8.240819,-0.38655 9.834576,-1.58187 1.593757,-1.19532 2.280303,-8.96802 4.27227,-8.99827 1.991967,-0.0302 2.91418,7.71804 4.543493,8.86442 1.629313,1.14638 9.233751,-0.60258 9.878068,1.28255 0.644317,1.88512 -6.439757,5.15655 -7.026543,7.06037 -0.586787,1.90382 3.426469,8.59561 1.832712,9.79093 z"
       inkscape:transform-center-x="0.098669621"
       inkscape:transform-center-y="-2.0029065"
       transform="matrix(1.4021112,0,0,1.4670294,323.40076,596.23233)" />
    <path
       sodipodi:type="star"
       style="fill:#ff0000;fill-opacity:1;stroke:none"
       id="path2989-7-4"
       sodipodi:sides="5"
       sodipodi:cx="69"
       sodipodi:cy="140.36218"
       sodipodi:r1="15"
       sodipodi:r2="7.5"
       sodipodi:arg1="0.92729522"
       sodipodi:arg2="1.5556138"
       inkscape:flatsided="false"
       inkscape:rounded="0.2"
       inkscape:randomized="0"
       d="m 78,152.36218 c -1.593757,1.19532 -6.894168,-4.53111 -8.886135,-4.50086 -1.991967,0.0302 -7.116077,5.91495 -8.74539,4.76858 -1.629313,-1.14638 2.178926,-7.95694 1.534609,-9.84207 -0.644317,-1.88512 -7.824446,-4.93996 -7.23766,-6.84378 0.586787,-1.90382 8.240819,-0.38655 9.834576,-1.58187 1.593757,-1.19532 2.280303,-8.96802 4.27227,-8.99827 1.991967,-0.0302 2.91418,7.71804 4.543493,8.86442 1.629313,1.14638 9.233751,-0.60258 9.878068,1.28255 0.644317,1.88512 -6.439757,5.15655 -7.026543,7.06037 -0.586787,1.90382 3.426469,8.59561 1.832712,9.79093 z"
       inkscape:transform-center-x="0.098669621"
       inkscape:transform-center-y="-2.0029065"
       transform="matrix(1.4021112,0,0,1.4670294,243.40076,596.23233)" />
    <rect
       style="fill:url(#linearGradient3837);fill-opacity:1;stroke:#ff0000;stroke-width:1.88935268;stroke-linecap:round;stroke-linejoin:round;stroke-miterlimit:4;stroke-opacity:1;stroke-dasharray:none"
       id="rect3821"
       width="198.11064"
       height="98.110649"
       x="50.944675"
       y="903.30688"
       rx="10"
       ry="10" />
    <path
       sodipodi:type="star"
       style="fill:#ff0000;fill-opacity:1;stroke:none"
       id="path2989-1"
       sodipodi:sides="5"
       sodipodi:cx="69"
       sodipodi:cy="140.36218"
       sodipodi:r1="15"
       sodipodi:r2="7.5"
       sodipodi:arg1="0.92729522"
       sodipodi:arg2="1.5556138"
       inkscape:flatsided="false"
       inkscape:rounded="0.2"
       inkscape:randomized="0"
       d="m 78,152.36218 c -1.593757,1.19532 -6.894168,-4.53111 -8.886135,-4.50086 -1.991967,0.0302 -7.116077,5.91495 -8.74539,4.76858 -1.629313,-1.14638 2.178926,-7.95694 1.534609,-9.84207 -0.644317,-1.88512 -7.824446,-4.93996 -7.23766,-6.84378 0.586787,-1.90382 8.240819,-0.38655 9.834576,-1.58187 1.593757,-1.19532 2.280303,-8.96802 4.27227,-8.99827 1.991967,-0.0302 2.91418,7.71804 4.543493,8.86442 1.629313,1.14638 9.233751,-0.60258 9.878068,1.28255 0.644317,1.88512 -6.439757,5.15655 -7.026543,7.06037 -0.586787,1.90382 3.426469,8.59561 1.832712,9.79093 z"
       inkscape:transform-center-x="0.098669621"
       inkscape:transform-center-y="-2.0029065"
       transform="matrix(1.4021112,0,0,1.4670294,123.40076,696.23233)" />
    <rect
       style="fill:url(#linearGradient3873);fill-opacity:1;stroke:#ff0000;stroke-width:1.88935268;stroke-linecap:round;stroke-linejoin:round;stroke-miterlimit:4;stroke-opacity:1;stroke-dasharray:none"
       id="rect3821-7"
       width="198.11064"
       height="98.110649"
       x="300.94467"
       y="903.30688"
       rx="10"
       ry="10" />
    <path
       sodipodi:type="star"
       style="fill:#ff0000;fill-opacity:1;stroke:none"
       id="path2989-1-7"
       sodipodi:sides="5"
       sodipodi:cx="69"
       sodipodi:cy="140.36218"
       sodipodi:r1="15"
       sodipodi:r2="7.5"
       sodipodi:arg1="0.92729522"
       sodipodi:arg2="1.5556138"
       inkscape:flatsided="false"
       inkscape:rounded="0.2"
       inkscape:randomized="0"
       d="m 78,152.36218 c -1.593757,1.19532 -6.894168,-4.53111 -8.886135,-4.50086 -1.991967,0.0302 -7.116077,5.91495 -8.74539,4.76858 -1.629313,-1.14638 2.178926,-7.95694 1.534609,-9.84207 -0.644317,-1.88512 -7.824446,-4.93996 -7.23766,-6.84378 0.586787,-1.90382 8.240819,-0.38655 9.834576,-1.58187 1.593757,-1.19532 2.280303,-8.96802 4.27227,-8.99827 1.991967,-0.0302 2.91418,7.71804 4.543493,8.86442 1.629313,1.14638 9.233751,-0.60258 9.878068,1.28255 0.644317,1.88512 -6.439757,5.15655 -7.026543,7.06037 -0.586787,1.90382 3.426469,8.59561 1.832712,9.79093 z"
       inkscape:transform-center-x="0.098669621"
       inkscape:transform-center-y="-2.0029065"
       transform="matrix(1.4021112,0,0,1.4670294,373.40076,696.23232)" />
    <text
       xml:space="preserve"
       style="font-size:40px;font-style:normal;font-weight:normal;line-height:125%;letter-spacing:0px;word-spacing:0px;fill:#ffffff;fill-opacity:1;stroke:none;font-family:Sans"
       x="464"
       y="910.36218"
       id="text3894"
       sodipodi:linespacing="125%"><tspan
         sodipodi:role="line"
         id="tspan3896"
         x="464"
         y="910.36218"
         style="font-size:22px;font-style:normal;font-variant:normal;font-weight:normal;font-stretch:normal;fill:#ffffff;fill-opacity:1;font-family:Arial;-inkscape-font-specification:Arial">2</tspan></text>
  </g>
</svg>
